<svg xmlns="http://www.w3.org/2000/svg" width="378" height="677" fill="none" viewBox="0 0 378 677">
  <g clip-path="url(#a)" opacity=".1">
    <path fill="#646FD4" fill-rule="evenodd" d="M555.647 109.526c-86.094-33.649-191.021-65.889-314.781-96.72L17.896 297.24c-.792 23.781 9.85 53.223 17.84 65.472l-3.695 20.202a14.599 14.599 0 0 0-6.64 4.288 14.633 14.633 0 0 0 2.097 21.313 17.022 17.022 0 0 0-3.411 15.363 16.693 16.693 0 0 0-10.616 1.823 16.723 16.723 0 0 0-7.298 7.931 16.75 16.75 0 0 0-.948 10.743 16.729 16.729 0 0 0 5.795 9.09l286.38 93.308c30.583 7.901 46.828-9.867 68.185-43.238 126.14-197.087 193.393-283.613 198.304-289.596 14.83-18.064 15.285-86.969-8.241-104.413Z" clip-rule="evenodd"/>
    <path fill="#640000" d="M310.959 553.371c-4.573 0-9.465-.642-14.744-2.004a5.48 5.48 0 0 1-.285-.083L9.551 457.977a4.744 4.744 0 0 1-1.495-.808 21.484 21.484 0 0 1-7.03-10.205A21.508 21.508 0 0 1 .8 434.569a21.482 21.482 0 0 1 6.65-10.456 21.443 21.443 0 0 1 11.314-5.035 21.818 21.818 0 0 1 2.594-9.934 19.394 19.394 0 0 1-3.92-16.408 19.364 19.364 0 0 1 10.406-13.267l2.892-15.803c-7.925-13.171-18.404-41.907-17.583-66.586a4.737 4.737 0 0 1 1.011-2.776L237.123 9.865a4.744 4.744 0 0 1 4.88-1.677c123.425 30.749 229.523 63.352 315.369 96.905.392.153.762.358 1.099.609 13.43 9.958 17.975 32.061 19.487 44.351 2.815 22.853.126 54.066-10.403 66.89-.584.713-66.763 84.134-197.974 289.144-16.997 26.56-32.626 47.284-58.622 47.284Zm-12.233-11.17c26.802 6.861 41.063-7.19 62.861-41.235 131.495-205.46 198.045-289.334 198.634-290.052 7.512-9.15 11.243-35.928 8.307-59.692-2.212-17.961-7.752-31.572-15.241-37.511-84.664-33.035-189.155-65.192-310.603-95.541L22.606 298.933c-.266 22.41 9.634 49.727 17.104 61.18a4.76 4.76 0 0 1 .695 3.456L36.71 383.77a4.756 4.756 0 0 1-3.268 3.687 9.846 9.846 0 0 0-4.483 2.892 9.868 9.868 0 0 0-1.798 10.123 9.86 9.86 0 0 0 3.212 4.263 4.744 4.744 0 0 1 1.843 3.26 4.758 4.758 0 0 1-1.088 3.585 12.265 12.265 0 0 0-2.457 11.058 4.76 4.76 0 0 1-1.058 4.413 4.751 4.751 0 0 1-4.273 1.512 11.951 11.951 0 0 0-12.688 6.615 11.99 11.99 0 0 0 2.72 14.062l285.355 92.961Z"/>
    <path fill="#fff" fill-rule="evenodd" d="m248.473 14.714-7.617-1.902L18.742 296.17l-.86 1.726c-.145 5.758.373 11.836 1.348 17.91L248.474 14.714Zm5.552 394.732-3.119-1.267 3.119 1.267Zm7.047 2.954a426.553 426.553 0 0 0-6.693-2.809 522.48 522.48 0 0 1 6.693 2.809Zm6.437 2.828a384.144 384.144 0 0 0-6.283-2.759c2.144.917 4.244 1.842 6.283 2.771v-.012Zm.425.195 27.709 15.163 1.732 1.319-29.441-16.482Zm-177.077-61.09-.683 11.948c68.833 21.798 138.798 42.796 207.197 65.624l220.74-306.757C414.408 252.482 343.273 351.921 294.437 416.69c-4.776 3.65-23.657-1.5-49.928-11.049 2.116.827 4.201 1.654 6.255 2.481-56.27-22.655-138.754-45.535-159.907-53.789ZM23.6 421.253c.091.883.254 1.757.487 2.614a16.67 16.67 0 0 0-8.678.926 16.7 16.7 0 0 0-7.026 5.182c64.22 24.069 118.051 43.025 161.492 56.866 117.32 49.085 165.23 53.677 163.69-8.955-4.951 20.363-17.839 31.692-38.663 33.986-116.025-33.62-206.458-63.825-271.297-90.614" clip-rule="evenodd" opacity=".5"/>
    <path fill="#640000" d="M310.959 553.371c-4.573 0-9.465-.642-14.744-2.004a5.48 5.48 0 0 1-.285-.083L9.551 457.977a4.744 4.744 0 0 1-1.495-.808 21.484 21.484 0 0 1-7.03-10.205A21.508 21.508 0 0 1 .8 434.569a21.482 21.482 0 0 1 6.65-10.456 21.443 21.443 0 0 1 11.314-5.035 21.818 21.818 0 0 1 2.594-9.934 19.394 19.394 0 0 1-3.92-16.408 19.364 19.364 0 0 1 10.406-13.267l2.892-15.803c-7.925-13.171-18.404-41.907-17.583-66.586a4.737 4.737 0 0 1 1.011-2.776L237.123 9.865a4.744 4.744 0 0 1 4.88-1.677c123.425 30.749 229.523 63.352 315.369 96.905.392.153.762.358 1.099.609 13.43 9.958 17.975 32.061 19.487 44.351 2.815 22.853.126 54.066-10.403 66.89-.584.713-66.763 84.134-197.974 289.144-16.997 26.56-32.626 47.284-58.622 47.284Zm-12.233-11.17c26.802 6.861 41.063-7.19 62.861-41.235 131.495-205.46 198.045-289.334 198.634-290.052 7.512-9.15 11.243-35.928 8.307-59.692-2.212-17.961-7.752-31.572-15.241-37.511-84.664-33.035-189.155-65.192-310.603-95.541L22.606 298.933c-.266 22.41 9.634 49.727 17.104 61.18a4.76 4.76 0 0 1 .695 3.456L36.71 383.77a4.756 4.756 0 0 1-3.268 3.687 9.846 9.846 0 0 0-4.483 2.892 9.868 9.868 0 0 0-1.798 10.123 9.86 9.86 0 0 0 3.212 4.263 4.744 4.744 0 0 1 1.843 3.26 4.758 4.758 0 0 1-1.088 3.585 12.265 12.265 0 0 0-2.457 11.058 4.76 4.76 0 0 1-1.058 4.413 4.751 4.751 0 0 1-4.273 1.512 11.951 11.951 0 0 0-12.688 6.615 11.99 11.99 0 0 0 2.72 14.062l285.355 92.961Z"/>
    <path fill="#fff" fill-rule="evenodd" d="M295.199 431.199 28.535 346.248c1.764 6.32 4.166 11.809 7.206 16.465l-3.7 20.202a14.582 14.582 0 0 0-6.644 4.286 14.628 14.628 0 0 0 2.1 21.315 17.039 17.039 0 0 0-3.415 15.363l247.246 85.833c16.23 5.633 33.567 6.861 46.923-3.945a42.025 42.025 0 0 0 13.772-20.447 42.064 42.064 0 0 0-.058-24.662c-5.079-16.423-20.412-24.245-36.766-29.459Z" clip-rule="evenodd"/>
    <path fill="#640000" d="M293.908 518.736c-7.369 0-15.414-1.512-24.135-4.535l-247.246-85.84a4.746 4.746 0 0 1-3.031-3.263 21.825 21.825 0 0 1 1.861-15.954 19.387 19.387 0 0 1-3.924-16.41 19.392 19.392 0 0 1 3.688-7.828 19.359 19.359 0 0 1 6.723-5.44l2.893-15.8c-2.812-4.682-5.088-10.103-6.774-16.144a4.759 4.759 0 0 1 1.276-4.7 4.738 4.738 0 0 1 4.737-1.109l266.668 84.959c15.386 4.903 33.821 13.035 39.876 32.579a46.598 46.598 0 0 1 .111 27.466 46.54 46.54 0 0 1-15.378 22.745c-7.654 6.177-16.797 9.274-27.345 9.274ZM28.281 420.297l244.602 84.923c17.87 6.205 32.133 5.143 42.387-3.151a37.082 37.082 0 0 0 12.252-18.124 37.126 37.126 0 0 0-.09-21.885c-3.701-11.971-14.087-20.092-33.674-26.333L36.225 353.684a46.995 46.995 0 0 0 3.487 6.417 4.76 4.76 0 0 1 .698 3.461l-3.7 20.201a4.758 4.758 0 0 1-3.271 3.684 9.848 9.848 0 0 0-4.485 2.892 9.868 9.868 0 0 0 1.418 14.386 4.755 4.755 0 0 1 .757 6.843 12.29 12.29 0 0 0-2.848 8.729Z"/>
    <path fill="#640000" fill-rule="evenodd" d="M178.403 408.126a40.421 40.421 0 0 1 1.313 22.186 40.39 40.39 0 0 1-10.612 19.52 40.317 40.317 0 0 1-19.32 10.94 40.266 40.266 0 0 1-22.175-.956l-.949-.33 1.31.456 1.339.454 1.367.476 1.4.489 1.425.492 1.455.509 1.49.515 1.517.528 1.552.556 1.583.552 1.61.556 1.642.57 1.662.58 1.704.589 1.728.602 1.763.613 1.792.62 1.821.632 1.854.645 1.877.656 1.913.663 1.946.672 1.97.687 2.004.696 2.034.713 2.067.713 2.089.725 2.136.739 2.153.747 2.184.758 2.214.767 2.246.78 2.276.794 4.645 1.609 2.373.822 20.017 6.954 2.637.913 5.369 1.861 2.729.95 2.761.951 2.786.967 5.666 1.968 2.881 1.001 2.908 1.01 2.941 1.022 2.974 1.029 3 1.043 3.026 1.046 3.06 1.065 3.085 1.072 3.126 1.088 3.152 1.093 3.183 1.103 3.212 1.117c9.181 3.185 18.713 4.96 27.675 3.95a42.361 42.361 0 0 0 16.329-7.014 42.439 42.439 0 0 0 12.023-13.099 42.496 42.496 0 0 0 3.81-34.581l-152.748-50.844Zm-6.866-16.32-6.172-1.968a40.567 40.567 0 0 1 5.032 4.739l1.14-2.771Z" clip-rule="evenodd" opacity=".3"/>
    <path fill="#9BA3EB" d="M476.401 113.088 272.467 394.216 39.503 315.698l209.67-275.366 227.228 72.756Z"/>
    <path fill="#640000" d="M272.467 398.969a4.785 4.785 0 0 1-1.514-.249L37.989 320.204a4.737 4.737 0 0 1-3.025-3.111 4.76 4.76 0 0 1 .763-4.275l209.67-275.367a4.747 4.747 0 0 1 5.222-1.647l227.227 72.757a4.757 4.757 0 0 1 3.065 3.047 4.763 4.763 0 0 1-.67 4.273L276.308 397.008a4.74 4.74 0 0 1-3.841 1.961ZM47.291 313.31l223.384 75.285 198.028-272.98-217.785-69.734L47.291 313.31Z"/>
    <path fill="#fff" fill-rule="evenodd" d="m271.739 129.578-36.933-15.929-13.638 35.845 28.67 75.079-13.328 22.777 26.622-7.141 8.035 31.039-13.636 3.978 3.408 16.504 55.79-14.971-4.63-17.309-12.511 3.292-8.994-32.256 27.7-7.582-24.966-11.398-21.589-81.928Z" clip-rule="evenodd"/>
    <path fill="#fff" fill-rule="evenodd" d="m214.771 173.986-3.776 1.347-20.987-12.309 6.577 24.587-28.587 7.422-3.667-12.596-15.191 3.149 13.785 51.519 15.951-4.278-3.046-11.548 29.713-8.319 6.978 25.58 10.498-23.053 11.201-3.119-19.449-38.382Zm118.948 10.763 14.669-34.109-33.016-12.597-27.059 9.885 13.938 45.577 31.468-8.756Z" clip-rule="evenodd"/>
    <path fill="#640000" d="M168.745 432.216a3.55 3.55 0 0 1-1.146-.19l-136.48-46.468a3.56 3.56 0 0 1-2.51-3.15 3.568 3.568 0 0 1 2.027-3.482 3.566 3.566 0 0 1 2.774-.116l136.48 46.466a3.568 3.568 0 0 1 1.156 6.094 3.56 3.56 0 0 1-2.303.846h.002ZM330.698 492.6c-.39 0-.777-.064-1.147-.19l-147.618-50.259c-.456-.14-.88-.37-1.246-.676a3.574 3.574 0 0 1-1.085-3.881 3.567 3.567 0 0 1 3.223-2.415c.476-.02.952.057 1.398.224l147.619 50.257a3.561 3.561 0 0 1 2.365 3.956 3.56 3.56 0 0 1-3.509 2.984Z"/>
    <path fill="#FFBE2E" fill-rule="evenodd" d="m207.724 75.751-25.701-7.225 48.148-63.773 91.26 23.03-16.543 20.209-62.221-16.784-34.943 44.543Z" clip-rule="evenodd"/>
    <path fill="#640000" d="M207.724 80.504a4.76 4.76 0 0 1-1.282-.175l-25.701-7.225a4.75 4.75 0 0 1-3.403-5.34 4.758 4.758 0 0 1 .899-2.104l48.15-63.773a4.744 4.744 0 0 1 4.947-1.742l91.263 23.03a4.752 4.752 0 0 1 2.511 7.622l-16.546 20.201a4.75 4.75 0 0 1-4.906 1.576l-59.194-15.96-33.004 42.068a4.753 4.753 0 0 1-3.734 1.822Zm-17.716-14.67 15.945 4.482 32.981-42.043a4.741 4.741 0 0 1 4.968-1.664l59.26 15.985 9.86-12.03-80.962-20.44-42.052 55.71Z"/>
    <path fill="#fff" fill-rule="evenodd" d="m194.14 71.93-12.117-3.404 48.148-63.773 91.26 23.03-6.681 8.164-79.545-20.197-41.065 56.18Z" clip-rule="evenodd" opacity=".5"/>
    <path fill="#FFBE2E" fill-rule="evenodd" d="M182.723 68.721v18.243l28.125 7.33 36.156-47.695 58.522 18.445.093-17.15-.731.098-62.221-16.784-34.943 44.543-25.001-7.03Z" clip-rule="evenodd"/>
    <path fill="#640000" d="M210.85 99.047c-.4 0-.799-.052-1.187-.152l-28.136-7.332a4.746 4.746 0 0 1-3.56-4.599v-18.24a4.748 4.748 0 0 1 6.031-4.578l21.943 6.18 32.981-42.044a4.75 4.75 0 0 1 4.968-1.663l61.318 16.539a4.739 4.739 0 0 1 3.618 1.242 4.751 4.751 0 0 1 1.528 3.511l-.092 17.15a4.76 4.76 0 0 1-1.947 3.819 4.737 4.737 0 0 1-4.225.697l-55.337-17.443-34.134 45.03a4.745 4.745 0 0 1-3.769 1.883ZM187.473 83.29l21.509 5.606 34.241-45.17a4.747 4.747 0 0 1 5.207-1.664l52.385 16.513.035-6.752-56.388-15.21-33.004 42.066a4.752 4.752 0 0 1-5.016 1.64l-18.969-5.333v8.304Z"/>
    <path fill="#FFBE2E" fill-rule="evenodd" d="m75.061 264.869-26.182-7.817-42.572 55.043v43.194l80.126 27.954 1.132-19.66 24.013-21.836-59.246-21.122 25.464-33.76-2.735-21.996Z" clip-rule="evenodd"/>
    <path fill="#640000" d="M86.435 387.996c-.531 0-1.06-.089-1.561-.264l-80.13-27.954a4.758 4.758 0 0 1-3.185-4.487v-43.198c0-1.054.35-2.078.995-2.911l42.572-55.046a4.74 4.74 0 0 1 5.11-1.645l26.183 7.819a4.746 4.746 0 0 1 3.354 3.969l2.734 21.996a4.757 4.757 0 0 1-.923 3.451L60.02 318.315l53.149 18.954a4.748 4.748 0 0 1 3.061 3.544 4.76 4.76 0 0 1-1.462 4.451l-22.574 20.541-1.021 17.721a4.756 4.756 0 0 1-4.747 4.48l.01-.01Zm-75.381-36.082 71.004 24.769.767-13.373a4.76 4.76 0 0 1 1.548-3.247l18.148-16.501-51.777-18.459a4.754 4.754 0 0 1-2.198-7.342l24.303-32.222-2.112-17.001-20.092-6.001-39.591 51.184v38.193Z"/>
    <path fill="#640000" d="M55.885 326.648a4.708 4.708 0 0 1-1.846-.378l-16.762-7.097a4.748 4.748 0 0 1-2.724-3.096 4.76 4.76 0 0 1 .72-4.062l35.938-49.924a4.756 4.756 0 0 1 3.091-1.913 4.73 4.73 0 0 1 3.536.836 4.75 4.75 0 0 1 1.845 4.948 4.76 4.76 0 0 1-.77 1.688l-32.455 45.089 11.279 4.775a4.752 4.752 0 0 1 2.808 5.326 4.754 4.754 0 0 1-4.66 3.808Zm77.305 120.781c-.39 0-.778-.064-1.147-.19L26.109 411.171a3.566 3.566 0 0 1 .907-6.948 3.57 3.57 0 0 1 1.386.198l105.934 36.069a3.567 3.567 0 0 1 1.156 6.093 3.557 3.557 0 0 1-2.302.846Zm159.377 13.809a3.61 3.61 0 0 1-1.147-.19l-93.112-31.7a3.563 3.563 0 0 1-2.289-4.544 3.567 3.567 0 0 1 1.827-2.065 3.549 3.549 0 0 1 2.753-.141l93.112 31.7a3.561 3.561 0 0 1 2.365 3.955 3.562 3.562 0 0 1-3.509 2.985Z"/>
    <path fill="#6550DC" fill-rule="evenodd" d="M557.403 110.966a24.704 24.704 0 0 0-1.756-1.426c-49.054-19.172-104.221-37.885-165.501-56.139 96.914 29.545 139.564 53.461 127.951 71.747L293.932 436.694a69.77 69.77 0 0 1 34.914 16.836 34.11 34.11 0 0 1 3.119 7.13c18.433 40.479 6.911 69.181-34.566 86.106 24.211-9.207 46.656-32.203 67.338-68.989l193.02-283.685c8.67-16.513 8.552-44.221-.354-83.124" clip-rule="evenodd" opacity=".3"/>
    <path fill="#640000" fill-rule="evenodd" d="m55.707 322.182 22.089-35.317-2.334-18.761-.4-3.235-35.939 49.926.589.262 15.995 7.125Z" clip-rule="evenodd" opacity=".3"/>
    <path fill="#FF832B" fill-rule="evenodd" d="M260.042 450.053c-17.785-9.583-33.432-11.498-48.865-15.923-35.617 31.782-45.845 65.73-30.682 101.844 8.929-11.015 17.784-19.406 26.564-25.174 2.569 23.022 12.511 37.056 29.829 42.103-12.948-33.953-3.333-71.45 23.154-102.85Z" clip-rule="evenodd"/>
    <path fill="#640000" d="M236.888 557.644a4.804 4.804 0 0 1-1.327-.19c-17.139-4.991-27.877-17.844-31.998-38.243-6.392 5.117-12.886 11.732-19.382 19.746a4.743 4.743 0 0 1-8.07-1.151c-15.967-38.026-5.222-74.094 31.9-107.234a4.738 4.738 0 0 1 4.467-1.02c3.99 1.146 7.949 2.108 12.141 3.128 11.823 2.875 24.046 5.851 37.664 13.185a4.758 4.758 0 0 1 1.376 7.254c-26.152 31.003-34.295 66.751-22.347 98.075.275.72.371 1.496.279 2.261a4.746 4.746 0 0 1-4.713 4.189h.01Zm-29.829-51.616c1.168 0 2.294.432 3.164 1.211a4.76 4.76 0 0 1 1.553 3.015c1.851 16.582 7.595 27.821 17.433 34.062-7.676-30.371.603-63.369 23.427-92.675-10.595-4.948-20.564-7.368-30.248-9.73-3.269-.794-6.625-1.612-9.969-2.517-30.282 27.807-40.244 56.462-30.306 87.311 7.453-8.363 14.954-15.039 22.338-19.897a4.735 4.735 0 0 1 2.608-.78Z"/>
    <path fill="#D15B1E" fill-rule="evenodd" d="M260.042 450.053c-27.654 33.948-35.372 68.228-23.154 102.838 6.408-39.742 17.635-67.849 34.02-83.97l-10.866-18.868Z" clip-rule="evenodd"/>
    <path fill="#640000" d="M236.885 557.644a4.738 4.738 0 0 1-2.74-.873 4.755 4.755 0 0 1-1.734-2.297c-12.753-36.125-4.695-72.25 23.954-107.425a4.75 4.75 0 0 1 6.216-1.012 4.75 4.75 0 0 1 1.574 1.642l10.866 18.868a4.76 4.76 0 0 1-.785 5.764c-15.405 15.155-26.394 42.523-32.663 81.338a4.75 4.75 0 0 1-4.272 3.974 4.008 4.008 0 0 1-.416.021Zm22.549-99.12c-18.039 24.018-25.634 47.69-22.973 71.746 6.508-27.895 15.924-48.346 28.541-62.076l-5.568-9.67Z"/>
    <path fill="#fff" fill-rule="evenodd" d="m24.872 308.029 34.222-47.928c-.971-3.021-2.983-5.566-6.035-7.634l-3.71 4.725-.475-.14-41.722 53.967-.845 1.076a18.548 18.548 0 0 0 0 6.436v-1.257c.019.537.04 1.079.064 1.616a24.26 24.26 0 0 0 3.622 8.67c3.56 5.44 9.038 9.792 14.405 11.869 40.953 15.605 63.167 24.154 63.167 24.154l9.127-6.795-35.468-15.003-31.661-13.398-3.964-1.663c-5.855-4.541-6.101-10.77-.738-18.686m62.26 63.257c-27.936-7.039-73.513-21.556-80.814-32.745v16.741l8.687 3.03 71.413 24.912h.028l.686-11.938Z" clip-rule="evenodd" opacity=".5"/>
    <path fill="#640000" d="M87.563 368.337a4.762 4.762 0 0 1-1.702-.317c-.22-.087-22.677-8.727-63.15-24.146-12.12-4.701-23.603-18.5-21.076-32.615a4.76 4.76 0 0 1 1.95-3.096 4.756 4.756 0 0 1 3.569-.791 4.753 4.753 0 0 1 3.826 5.565c-1.597 8.922 6.691 18.775 15.131 22.062 40.467 15.418 62.935 24.061 63.158 24.147a4.748 4.748 0 0 1 2.965 5.306 4.756 4.756 0 0 1-1.634 2.788 4.742 4.742 0 0 1-3.037 1.097Z"/>
    <path fill="#640000" d="M86.435 387.996c-.531 0-1.06-.089-1.561-.264l-80.13-27.954a4.758 4.758 0 0 1-3.185-4.487v-43.198c0-1.054.35-2.078.995-2.911l42.572-55.046a4.74 4.74 0 0 1 5.11-1.645l26.183 7.819a4.746 4.746 0 0 1 3.354 3.969l2.734 21.996a4.757 4.757 0 0 1-.923 3.451L60.02 318.315l53.149 18.954a4.748 4.748 0 0 1 3.061 3.544 4.76 4.76 0 0 1-1.462 4.451l-22.574 20.541-1.021 17.721a4.756 4.756 0 0 1-4.747 4.48l.01-.01Zm-75.381-36.082 71.004 24.769.767-13.373a4.76 4.76 0 0 1 1.548-3.247l18.148-16.501-51.777-18.459a4.754 4.754 0 0 1-2.198-7.342l24.303-32.222-2.112-17.001-20.092-6.001-39.591 51.184v38.193ZM531.125 98.901l-237.596 330.23 7.703 5.557 237.596-330.23-7.703-5.557Z"/>
    <path fill="#640000" fill-rule="evenodd" d="m207.724 75.751.817 17.944 2.307.599 36.156-47.695 58.522 18.445.034-6.657.059-10.493-.731.098-62.221-16.784-34.943 44.543Z" clip-rule="evenodd" opacity=".3"/>
    <path fill="#640000" d="M207.724 80.504a4.76 4.76 0 0 1-1.282-.175l-25.701-7.225a4.75 4.75 0 0 1-3.403-5.34 4.758 4.758 0 0 1 .899-2.104l48.15-63.773a4.744 4.744 0 0 1 4.947-1.742l91.263 23.03a4.752 4.752 0 0 1 2.511 7.622l-16.546 20.201a4.75 4.75 0 0 1-4.906 1.576l-59.194-15.96-33.004 42.068a4.753 4.753 0 0 1-3.734 1.822Zm-17.716-14.67 15.945 4.482 32.981-42.043a4.741 4.741 0 0 1 4.968-1.664l59.26 15.985 9.86-12.03-80.962-20.44-42.052 55.71Z"/>
    <path fill="#fff" fill-rule="evenodd" d="M187.224 493.971a75.472 75.472 0 0 1 3.211-12.358c.131-.383.271-.768.411-1.151 4.114-11.175 10.931-21.87 20.45-32.084a143.578 143.578 0 0 1 11.744-11.199c-3.989-.972-7.934-1.94-11.867-3.066-3.912 3.486-7.516 7.001-10.812 10.545-9.75 10.47-16.825 21.165-21.224 32.085-.116.28-.221.556-.332.837a75.93 75.93 0 0 0-3.487 11.515 71.051 71.051 0 0 0-1.583 17.366c.308 9.665 2.56 19.495 6.755 29.492a169.76 169.76 0 0 1 8.029-9.222 87.623 87.623 0 0 1-2.307-16.204 76.776 76.776 0 0 1 1.004-16.565" clip-rule="evenodd" opacity=".5"/>
    <path fill="#640000" d="M236.888 557.644a4.804 4.804 0 0 1-1.327-.19c-17.139-4.991-27.877-17.844-31.998-38.243-6.392 5.117-12.886 11.732-19.382 19.746a4.743 4.743 0 0 1-8.07-1.151c-15.967-38.026-5.222-74.094 31.9-107.234a4.738 4.738 0 0 1 4.467-1.02c3.99 1.146 7.949 2.108 12.141 3.128 11.823 2.875 24.046 5.851 37.664 13.185a4.758 4.758 0 0 1 1.376 7.254c-26.152 31.003-34.295 66.751-22.347 98.075.275.72.371 1.496.279 2.261a4.746 4.746 0 0 1-4.713 4.189h.01Zm-29.829-51.616c1.168 0 2.294.432 3.164 1.211a4.76 4.76 0 0 1 1.553 3.015c1.851 16.582 7.595 27.821 17.433 34.062-7.676-30.371.603-63.369 23.427-92.675-10.595-4.948-20.564-7.368-30.248-9.73-3.269-.794-6.625-1.612-9.969-2.517-30.282 27.807-40.244 56.462-30.306 87.311 7.453-8.363 14.954-15.039 22.338-19.897a4.735 4.735 0 0 1 2.608-.78Z"/>
    <path fill="#640000" d="M272.65 677c126.643 0 229.307-12.369 229.307-27.626 0-15.258-102.664-27.626-229.307-27.626-126.642 0-229.306 12.368-229.306 27.626C43.344 664.631 146.007 677 272.65 677Z" opacity=".2"/>
  </g>
  <defs>
    <clipPath id="a">
      <path fill="#fff" d="M0 0h579v677H0z"/>
    </clipPath>
  </defs>
</svg>
