<svg xmlns="http://www.w3.org/2000/svg" width="336" height="140" fill="none" viewBox="0 0 336 140">
  <path fill="#6550DC" d="m2.66 32.42.306-1.875h13.09l-.306 1.875h-5.489L7.671 48H5.556l2.59-15.58H2.66Zm16.795 7.705L18.16 48h-2.012l2.898-17.454h2.012L20 36.955h.17a4.561 4.561 0 0 1 1.637-1.62c.687-.398 1.55-.596 2.59-.596.887 0 1.634.179 2.242.537.614.352 1.045.894 1.295 1.627.256.728.293 1.654.111 2.779L26.648 48h-2.01L26 39.818c.17-1.04.031-1.844-.418-2.412-.443-.574-1.133-.86-2.07-.86-.66 0-1.274.139-1.842.417a3.918 3.918 0 0 0-1.432 1.219c-.386.534-.647 1.182-.784 1.943ZM30.328 48l2.182-13.09h2.011L32.34 48h-2.012Zm3.801-15.307a1.43 1.43 0 0 1-1.014-.4 1.287 1.287 0 0 1-.418-.963c0-.375.14-.696.418-.963a1.43 1.43 0 0 1 1.014-.401 1.4 1.4 0 0 1 1.006.4c.284.268.426.588.426.963s-.142.697-.426.964a1.4 1.4 0 0 1-1.006.4Zm12.872 5.148-1.91.511a2.968 2.968 0 0 0-.357-.886c-.165-.29-.42-.526-.767-.708-.341-.187-.807-.28-1.398-.28-.801 0-1.497.184-2.088.553-.591.364-.93.827-1.014 1.39-.086.494.028.889.34 1.184.313.296.836.537 1.569.725l1.875.477c1.125.29 1.926.724 2.403 1.304.483.574.648 1.32.494 2.241a3.94 3.94 0 0 1-.98 2.012c-.528.59-1.204 1.056-2.028 1.397-.824.341-1.742.512-2.753.512-1.346 0-2.409-.29-3.187-.87-.779-.585-1.194-1.431-1.245-2.54l2.012-.477c.05.7.3 1.228.75 1.586.454.352 1.09.528 1.909.528.937 0 1.718-.199 2.343-.597.625-.403.98-.886 1.066-1.448.085-.46-.006-.844-.273-1.151-.261-.307-.716-.537-1.364-.69l-2.08-.512c-1.158-.29-1.97-.733-2.437-1.33-.46-.596-.613-1.346-.46-2.25a3.834 3.834 0 0 1 .955-1.96c.517-.568 1.165-1.014 1.943-1.338a6.633 6.633 0 0 1 2.557-.485c1.295 0 2.264.284 2.906.852.642.562 1.048 1.312 1.219 2.25ZM55.313 48l2.181-13.09h2.012L57.324 48h-2.011Zm3.8-15.307a1.43 1.43 0 0 1-1.014-.4 1.287 1.287 0 0 1-.417-.963c0-.375.139-.696.417-.963a1.43 1.43 0 0 1 1.015-.401 1.4 1.4 0 0 1 1.005.4c.284.268.426.588.426.963s-.142.697-.426.964a1.4 1.4 0 0 1-1.005.4Zm12.872 5.148-1.909.511a2.966 2.966 0 0 0-.358-.886c-.165-.29-.42-.526-.767-.708-.34-.187-.807-.28-1.398-.28-.8 0-1.497.184-2.088.553-.59.364-.929.827-1.014 1.39-.085.494.028.889.34 1.184.313.296.836.537 1.57.725l1.874.477c1.125.29 1.926.724 2.403 1.304.483.574.648 1.32.495 2.241a3.94 3.94 0 0 1-.98 2.012c-.529.59-1.205 1.056-2.029 1.397-.824.341-1.741.512-2.753.512-1.346 0-2.409-.29-3.187-.87-.778-.585-1.193-1.431-1.244-2.54l2.011-.477c.051.7.301 1.228.75 1.586.455.352 1.09.528 1.91.528.937 0 1.718-.199 2.343-.597.625-.403.98-.886 1.065-1.448.085-.46-.006-.844-.273-1.151-.26-.307-.715-.537-1.363-.69l-2.08-.512c-1.159-.29-1.971-.733-2.437-1.33-.46-.596-.614-1.346-.46-2.25a3.834 3.834 0 0 1 .954-1.96c.517-.568 1.165-1.014 1.943-1.338a6.633 6.633 0 0 1 2.557-.485c1.296 0 2.264.284 2.906.852.642.562 1.049 1.312 1.22 2.25ZM81.285 48H79.07l9.306-17.454h2.182L94.07 48h-2.216l-2.762-14.693h-.136L81.286 48Zm1.944-6.818h8.931l-.306 1.875h-8.932l.307-1.875ZM101.8 30.545 98.902 48h-2.114l2.898-17.454h2.114Zm12.283 22.637c-.977 0-1.795-.125-2.454-.375-.66-.245-1.188-.568-1.586-.972a4.319 4.319 0 0 1-.903-1.278l1.807-1.125c.136.238.312.511.528.818.216.313.543.582.98.81.443.233 1.066.35 1.867.35 1.051 0 1.971-.257 2.761-.768s1.279-1.313 1.466-2.403l.409-2.66h-.17c-.182.24-.435.535-.759.887-.324.346-.758.656-1.304.929-.545.267-1.244.4-2.096.4-1.063 0-1.972-.25-2.728-.75-.755-.5-1.298-1.227-1.628-2.181-.323-.955-.372-2.114-.144-3.478.221-1.34.647-2.508 1.278-3.503.636-1 1.42-1.772 2.352-2.318a5.887 5.887 0 0 1 3.051-.826c.853 0 1.506.142 1.961.426.46.278.795.596 1.005.954.211.353.37.642.478.87h.204l.341-2.08h1.943l-2.216 13.466c-.187 1.125-.593 2.04-1.218 2.744a5.522 5.522 0 0 1-2.302 1.56 8.38 8.38 0 0 1-2.923.503Zm1.057-7.193c.801 0 1.514-.185 2.139-.554.631-.37 1.154-.9 1.568-1.594.415-.693.702-1.523.861-2.489.159-.943.148-1.775-.034-2.497-.182-.721-.526-1.287-1.031-1.696-.5-.409-1.156-.614-1.969-.614-.858 0-1.599.216-2.224.648-.62.432-1.123 1.012-1.509 1.739a7.9 7.9 0 0 0-.801 2.42c-.148.91-.142 1.713.017 2.412.159.693.483 1.239.972 1.637.494.392 1.164.588 2.011.588Zm14.557 2.284c-1.256 0-2.293-.279-3.111-.836-.818-.562-1.389-1.346-1.713-2.352-.324-1.011-.375-2.187-.154-3.528.222-1.341.662-2.523 1.321-3.546.66-1.028 1.481-1.83 2.464-2.403a6.258 6.258 0 0 1 3.238-.87c.682 0 1.338.114 1.969.342a3.992 3.992 0 0 1 1.636 1.108c.461.505.782 1.176.963 2.01.182.836.171 1.864-.034 3.086l-.136.852h-10.091l.273-1.738h8.045c.131-.739.097-1.398-.102-1.978a2.635 2.635 0 0 0-1.014-1.372c-.478-.335-1.083-.503-1.816-.503a3.91 3.91 0 0 0-2.113.614 5.554 5.554 0 0 0-1.637 1.534c-.437.614-.71 1.239-.818 1.875l-.238 1.5c-.171 1.085-.145 1.949.076 2.591.228.642.622 1.105 1.185 1.39.562.278 1.267.417 2.114.417.539 0 1.036-.074 1.491-.222.455-.153.861-.38 1.219-.681.358-.307.659-.688.903-1.143l1.841.546a5.352 5.352 0 0 1-1.321 1.739 6.217 6.217 0 0 1-1.977 1.159 7.175 7.175 0 0 1-2.463.409Zm11.868-8.148L140.269 48h-2.011l2.182-13.09h1.943l-.341 2.045h.17a4.635 4.635 0 0 1 1.662-1.603c.699-.409 1.543-.613 2.532-.613.875 0 1.613.181 2.215.545.608.358 1.037.904 1.287 1.636.256.728.293 1.648.111 2.762L148.621 48h-2.011l1.364-8.182c.17-1.023.037-1.824-.401-2.403-.432-.58-1.116-.87-2.054-.87-.648 0-1.247.14-1.798.418a3.828 3.828 0 0 0-1.389 1.219c-.375.534-.631 1.182-.767 1.943Zm16.186 8.148c-1.255 0-2.292-.279-3.11-.836-.819-.562-1.39-1.346-1.713-2.352-.324-1.011-.375-2.187-.154-3.528.222-1.341.662-2.523 1.321-3.546.659-1.028 1.48-1.83 2.463-2.403a6.262 6.262 0 0 1 3.239-.87c.682 0 1.338.114 1.969.342a3.99 3.99 0 0 1 1.636 1.108c.46.505.781 1.176.963 2.01.182.836.171 1.864-.034 3.086l-.136.852h-10.091l.272-1.738h8.046c.131-.739.096-1.398-.102-1.978a2.642 2.642 0 0 0-1.015-1.372c-.477-.335-1.082-.503-1.815-.503-.756 0-1.46.205-2.114.614a5.562 5.562 0 0 0-1.636 1.534c-.437.614-.71 1.239-.818 1.875l-.239 1.5c-.17 1.085-.145 1.949.077 2.591.227.642.622 1.105 1.185 1.39.562.278 1.267.417 2.113.417.54 0 1.037-.074 1.492-.222a3.71 3.71 0 0 0 1.218-.681c.358-.307.66-.688.904-1.143l1.841.546a5.366 5.366 0 0 1-1.321 1.739 6.221 6.221 0 0 1-1.978 1.159 7.175 7.175 0 0 1-2.463.409Zm8.561-.273 2.182-13.09h1.944l-.341 1.976h.136c.341-.647.861-1.173 1.56-1.576a4.376 4.376 0 0 1 2.224-.605c.153 0 .338.002.554.008.216 0 .384.009.503.026l-.341 2.045a5.993 5.993 0 0 0-.46-.077 4.674 4.674 0 0 0-.767-.06c-.637 0-1.225.134-1.765.401a3.8 3.8 0 0 0-1.355 1.091c-.363.46-.596.986-.698 1.577L168.324 48h-2.012Zm12.795.307c-.829 0-1.557-.156-2.182-.469a3.064 3.064 0 0 1-1.389-1.372c-.301-.602-.383-1.33-.247-2.182.131-.75.384-1.358.759-1.824.375-.471.829-.84 1.363-1.108a7.08 7.08 0 0 1 1.739-.605 19.702 19.702 0 0 1 1.866-.315c.807-.102 1.463-.182 1.969-.239.506-.057.886-.15 1.142-.281.256-.13.412-.355.469-.673v-.069c.136-.835.025-1.485-.333-1.951-.357-.472-.997-.708-1.917-.708-.955 0-1.753.21-2.395.631-.642.42-1.116.87-1.423 1.347l-1.773-.682c.466-.796 1.023-1.415 1.67-1.858a6.172 6.172 0 0 1 2.037-.938 8.276 8.276 0 0 1 2.054-.272c.421 0 .895.05 1.424.153a3.928 3.928 0 0 1 1.483.605c.465.307.815.77 1.048 1.39.239.619.273 1.448.102 2.488L185.141 48h-2.011l.307-1.773h-.102c-.182.284-.461.588-.836.912-.369.324-.838.6-1.406.827-.562.227-1.224.34-1.986.34Zm.58-1.807c.795 0 1.491-.156 2.088-.469a4.118 4.118 0 0 0 1.449-1.21 3.575 3.575 0 0 0 .69-1.56l.307-1.84c-.102.102-.304.196-.605.28-.301.08-.642.151-1.023.214-.375.057-.741.108-1.099.153-.353.04-.637.074-.853.102a8.636 8.636 0 0 0-1.525.333 3.132 3.132 0 0 0-1.21.673c-.324.296-.526.699-.606 1.21-.119.7.049 1.228.503 1.586.455.352 1.083.528 1.884.528Zm17.001-11.59-.273 1.704h-6.784l.272-1.705h6.785Zm-4.296-3.137h2.011l-2.079 12.477c-.091.568-.077.994.042 1.278.125.279.313.466.563.563.256.09.531.136.827.136.221 0 .403-.011.545-.034l.341-.068.136 1.807c-.153.051-.36.102-.622.153a4.442 4.442 0 0 1-.946.085 3.601 3.601 0 0 1-1.602-.366 2.544 2.544 0 0 1-1.151-1.117c-.267-.5-.338-1.13-.213-1.892l2.148-13.022Zm10.453 16.5c-1.256 0-2.292-.279-3.111-.836-.818-.562-1.389-1.346-1.713-2.352-.324-1.011-.375-2.187-.153-3.528.221-1.341.662-2.523 1.321-3.546.659-1.028 1.48-1.83 2.463-2.403a6.26 6.26 0 0 1 3.239-.87c.681 0 1.338.114 1.968.342a3.995 3.995 0 0 1 1.637 1.108c.46.505.781 1.176.963 2.01.182.836.17 1.864-.034 3.086l-.137.852h-10.091l.273-1.738h8.046c.13-.739.096-1.398-.103-1.978a2.635 2.635 0 0 0-1.014-1.372c-.477-.335-1.082-.503-1.815-.503-.756 0-1.46.205-2.114.614a5.55 5.55 0 0 0-1.636 1.534c-.438.614-.71 1.239-.818 1.875l-.239 1.5c-.17 1.085-.145 1.949.077 2.591.227.642.622 1.105 1.184 1.39.563.278 1.267.417 2.114.417.54 0 1.037-.074 1.491-.222.455-.153.861-.38 1.219-.681.358-.307.659-.688.904-1.143l1.841.546a5.366 5.366 0 0 1-1.321 1.739 6.221 6.221 0 0 1-1.978 1.159 7.175 7.175 0 0 1-2.463.409Zm13.487 0c-1.096 0-2.017-.276-2.761-.827-.744-.557-1.27-1.34-1.577-2.352-.301-1.017-.338-2.219-.11-3.605.232-1.375.667-2.569 1.304-3.58.642-1.011 1.428-1.792 2.36-2.344a5.887 5.887 0 0 1 3.051-.826c.853 0 1.503.142 1.952.426.455.278.784.596.989.954.204.353.361.642.469.87h.17l1.074-6.443h2.011L222.366 48h-1.943l.341-2.011h-.238a15.8 15.8 0 0 1-.785.903c-.335.358-.778.679-1.329.963-.546.279-1.239.418-2.08.418Zm.495-1.807c.807 0 1.528-.21 2.164-.63.643-.427 1.177-1.015 1.603-1.765.426-.756.721-1.628.886-2.616.165-.978.159-1.833-.017-2.566-.176-.738-.514-1.312-1.014-1.721-.5-.415-1.162-.623-1.986-.623-.847 0-1.582.22-2.207.657-.625.431-1.134 1.02-1.526 1.764a8.106 8.106 0 0 0-.818 2.489c-.153.931-.156 1.778-.009 2.54.148.755.461 1.357.938 1.806.483.443 1.145.665 1.986.665Zm15.042-15.92-2.25 12.545h-1.977l1.909-12.546h2.318Zm-3.818 17.59c-.432 0-.792-.147-1.082-.443a1.578 1.578 0 0 1-.452-1.09 1.364 1.364 0 0 1 .452-1.066c.307-.29.667-.435 1.082-.435.421 0 .784.148 1.091.444.307.295.455.647.443 1.056a1.514 1.514 0 0 1-.221.776 1.527 1.527 0 0 1-1.313.758Z"/>
  <path stroke="#9BA3EB" d="M122 64.206c42.167-1.334 134.7 3.2 167.5 32 32.8 28.8 2.333 27.333-17 23l62 19.5-18-54"/>
</svg>
