<svg xmlns="http://www.w3.org/2000/svg" width="310" height="382" fill="none" viewBox="0 0 310 382">
  <path fill="#9BA3EB" fill-opacity=".6" d="M266 382C119.331 382 0 262.669 0 116 0-30.669 119.331-150 266-150v3.316C121.16-146.684 3.347-28.84 3.347 115.969c0 144.84 117.844 262.653 262.653 262.653 43.765 0 87.096-10.973 125.282-31.739l1.581 2.913C354.181 370.904 310.292 382 266 382Z"/>
  <path fill="#9BA3EB" fill-opacity=".6" d="M140.129 320.754C68.469 276.617 25.695 200.059 25.695 116h6.664c0 81.734 41.595 156.153 111.272 199.082l-3.502 5.672ZM266 356.336c-26.346 0-52.227-4.246-76.961-12.584l2.139-6.292c24.052 8.121 49.22 12.243 74.853 12.243 120.354 0 220.313-90.165 232.432-209.744l6.633.682C492.574 263.568 389.794 356.336 266 356.336ZM496.666 78.682c-8.71-54.21-36.544-103.896-78.418-139.881C375.94-97.587 321.853-117.61 266-117.61c-45.098 0-88.863 12.863-126.584 37.225C95.465-51.993 61.928-9.22 44.974 40.062l-6.292-2.17c17.42-50.677 51.917-94.659 97.108-123.856 38.805-25.044 83.81-38.279 130.179-38.279 57.465 0 113.07 20.612 156.587 58.023 43.052 37.008 71.692 88.119 80.65 143.879l-6.54 1.023Z"/>
  <path fill="#9BA3EB" fill-opacity=".6" d="M266 289.573c-95.713 0-173.573-77.86-173.573-173.573 0-38.744 12.491-75.38 36.079-105.941l5.269 4.06C111.086 43.533 99.091 78.744 99.091 116c0 92.024 74.884 166.909 166.909 166.909 16.334 0 32.483-2.356 47.949-7.005l1.922 6.385c-16.117 4.866-32.917 7.284-49.871 7.284Z"/>
  <path fill="#9BA3EB" fill-opacity=".6" d="M266 259.755c-23.37 0-46.586-5.734-67.104-16.582l1.549-2.945c20.054 10.601 42.712 16.211 65.524 16.211 63.013 0 118.68-42.37 135.387-103.059l3.192.899C387.501 216.393 330.501 259.755 266 259.755Zm-101.633-42.06c-27.152-27.152-42.122-63.261-42.122-101.664 0-79.254 64.47-143.755 143.755-143.755 79.255 0 143.755 64.5 143.755 143.755h-3.316c0-77.426-62.982-140.408-140.408-140.408-77.426 0-140.408 62.982-140.408 140.408 0 37.504 14.599 72.777 41.162 99.308l-2.418 2.356Z"/>
  <path fill="#9BA3EB" fill-opacity=".6" d="M266 205.421c-49.313 0-89.421-40.108-89.421-89.421 0-49.313 40.108-89.421 89.421-89.421v6.664c-45.625 0-82.757 37.132-82.757 82.757 0 45.625 37.132 82.757 82.757 82.757 45.625 0 82.757-37.132 82.757-82.757h6.664c-.031 49.313-40.139 89.421-89.421 89.421Z"/>
  <path fill="#9BA3EB" fill-opacity=".6" d="M266 160.447c-24.517 0-44.447-19.93-44.447-44.447h3.316c0 22.657 18.443 41.099 41.1 41.099s41.099-18.442 41.099-41.099c0-22.657-18.442-41.1-41.099-41.1-12.584 0-24.3 5.641-32.173 15.498l-2.604-2.077c8.493-10.662 21.17-16.768 34.777-16.768 24.517 0 44.447 19.93 44.447 44.447 0 24.517-19.93 44.447-44.416 44.447Z"/>
</svg>
