<svg xmlns="http://www.w3.org/2000/svg" width="303" height="303" fill="none" viewBox="0 0 303 303">
  <g opacity=".89">
    <path stroke="#9BA3EB" stroke-linecap="round" stroke-linejoin="round" stroke-width=".813" d="M151.5 302c83.119 0 150.5-67.381 150.5-150.5S234.619 1 151.5 1 1 68.381 1 151.5 68.381 302 151.5 302Z" opacity=".89"/>
    <path stroke="#9BA3EB" stroke-linecap="round" stroke-linejoin="round" stroke-width=".949" d="M151.5 291.024c77.057 0 139.524-62.467 139.524-139.524S228.557 11.976 151.5 11.976 11.976 74.443 11.976 151.5 74.443 291.024 151.5 291.024Z" opacity=".89"/>
    <path stroke="#9BA3EB" stroke-linecap="round" stroke-linejoin="round" stroke-width="1.086" d="M151.5 280.048c70.995 0 128.548-57.553 128.548-128.548S222.495 22.952 151.5 22.952 22.952 80.505 22.952 151.5 80.505 280.048 151.5 280.048Z" opacity=".89"/>
    <path stroke="#9BA3EB" stroke-linecap="round" stroke-linejoin="round" stroke-width="1.222" d="M151.5 269.072c64.933 0 117.572-52.639 117.572-117.572 0-64.933-52.639-117.572-117.572-117.572-64.933 0-117.572 52.639-117.572 117.572 0 64.933 52.639 117.572 117.572 117.572Z" opacity=".89"/>
    <path stroke="#9BA3EB" stroke-linecap="round" stroke-linejoin="round" stroke-width="1.359" d="M151.5 258.096c58.872 0 106.596-47.724 106.596-106.596 0-58.872-47.724-106.596-106.596-106.596-58.872 0-106.596 47.724-106.596 106.596 0 58.872 47.724 106.596 106.596 106.596Z" opacity=".89"/>
    <path stroke="#9BA3EB" stroke-linecap="round" stroke-linejoin="round" stroke-width="1.496" d="M151.5 247.121c52.81 0 95.621-42.811 95.621-95.621 0-52.81-42.811-95.62-95.621-95.62-52.81 0-95.62 42.81-95.62 95.62s42.81 95.621 95.62 95.621Z" opacity=".89"/>
    <path stroke="#9BA3EB" stroke-linecap="round" stroke-linejoin="round" stroke-width="1.632" d="M151.5 236.145c46.748 0 84.645-37.897 84.645-84.645S198.248 66.855 151.5 66.855 66.855 104.752 66.855 151.5s37.897 84.645 84.645 84.645Z" opacity=".89"/>
    <path stroke="#9BA3EB" stroke-linecap="round" stroke-linejoin="round" stroke-width="1.769" d="M151.5 225.169c40.686 0 73.669-32.983 73.669-73.669S192.186 77.831 151.5 77.831 77.831 110.814 77.831 151.5s32.983 73.669 73.669 73.669Z" opacity=".89"/>
    <path stroke="#9BA3EB" stroke-linecap="round" stroke-linejoin="round" stroke-width="1.905" d="M151.5 214.211c34.635 0 62.711-28.076 62.711-62.711S186.135 88.789 151.5 88.789 88.788 116.865 88.788 151.5s28.077 62.711 62.712 62.711Z" opacity=".89"/>
    <path stroke="#9BA3EB" stroke-linecap="round" stroke-linejoin="round" stroke-width="2.042" d="M151.5 203.235c28.573 0 51.736-23.162 51.736-51.735S180.073 99.764 151.5 99.764c-28.573 0-51.736 23.163-51.736 51.736 0 28.573 23.163 51.735 51.736 51.735Z" opacity=".89"/>
    <path stroke="#9BA3EB" stroke-linecap="round" stroke-linejoin="round" stroke-width="2.179" d="M151.5 192.26c22.511 0 40.76-18.249 40.76-40.76s-18.249-40.76-40.76-40.76-40.76 18.249-40.76 40.76 18.249 40.76 40.76 40.76Z" opacity=".89"/>
    <path stroke="#9BA3EB" stroke-linecap="round" stroke-linejoin="round" stroke-width="2.315" d="M151.5 181.284c16.449 0 29.784-13.335 29.784-29.784 0-16.449-13.335-29.784-29.784-29.784-16.449 0-29.784 13.335-29.784 29.784 0 16.449 13.335 29.784 29.784 29.784Z" opacity=".89"/>
  </g>
</svg>
